<svg xmlns="http://www.w3.org/2000/svg" width="512" height="512" viewBox="0 0 512 512" role="img" aria-label="Ceylon Gem Maison — Ceylon sapphire">
  <defs>
    <linearGradient id="cgm-bg" x1="0" y1="0" x2="0" y2="1">
      <stop offset="0" stop-color="#0C2245"/>
      <stop offset="1" stop-color="#081627"/>
    </linearGradient>
    <radialGradient id="cgm-gem" cx="0.42" cy="0.33" r="0.9">
      <stop offset="0" stop-color="#7FA2F3"/>
      <stop offset="0.35" stop-color="#3E68E0"/>
      <stop offset="0.7" stop-color="#1B41B2"/>
      <stop offset="1" stop-color="#0A2472"/>
    </radialGradient>
    <clipPath id="cgm-drop">
      <path d="M256 98 C296 150 372 224 372 300 C372 374 320 436 256 436 C192 436 140 374 140 300 C140 224 216 150 256 98 Z"/>
    </clipPath>
  </defs>

  <rect width="512" height="512" rx="112" fill="url(#cgm-bg)"/>
  <rect x="26" y="26" width="460" height="460" rx="92" fill="none" stroke="#C9A24B" stroke-opacity="0.45" stroke-width="4"/>

  <g clip-path="url(#cgm-drop)">
    <rect width="512" height="512" fill="url(#cgm-gem)"/>
    <g stroke="#0A1E4A" stroke-opacity="0.35" stroke-width="2" stroke-linejoin="round">
      <polygon points="256,98 178,208 256,186" fill="#5C84EA" fill-opacity="0.8"/>
      <polygon points="256,98 256,186 334,208" fill="#365DD6" fill-opacity="0.8"/>
      <polygon points="178,208 140,300 206,300 256,186" fill="#4B76E6" fill-opacity="0.75"/>
      <polygon points="334,208 372,300 306,300 256,186" fill="#2A54CC" fill-opacity="0.75"/>
      <polygon points="256,186 206,300 256,256 306,300" fill="#82A4F4" fill-opacity="0.85"/>
      <polygon points="140,300 206,300 198,388" fill="#3C64DD" fill-opacity="0.8"/>
      <polygon points="372,300 306,300 314,388" fill="#1F46C0" fill-opacity="0.8"/>
      <polygon points="206,300 256,256 256,322 198,388" fill="#3157D2" fill-opacity="0.8"/>
      <polygon points="306,300 256,256 256,322 314,388" fill="#1D42B6" fill-opacity="0.8"/>
      <polygon points="198,388 256,322 256,436" fill="#1A3AA4" fill-opacity="0.85"/>
      <polygon points="314,388 256,322 256,436" fill="#122C86" fill-opacity="0.85"/>
    </g>
    <polygon points="256,116 196,202 246,190" fill="#EAF1FF" fill-opacity="0.5"/>
    <polygon points="214,296 252,260 254,300" fill="#DCE8FF" fill-opacity="0.4"/>
  </g>

  <path d="M256 98 C296 150 372 224 372 300 C372 374 320 436 256 436 C192 436 140 374 140 300 C140 224 216 150 256 98 Z"
        fill="none" stroke="#BFD2FF" stroke-opacity="0.5" stroke-width="3"/>
</svg>
